<?xml version="1.0" encoding="UTF-8"?>
<svg id="Layer_2" data-name="Layer 2" xmlns="http://www.w3.org/2000/svg" viewBox="0 0 138.89 139.15">
  <defs>
    <style>
      .cls-1 {
        stroke: #f1f2f2;
      }

      .cls-1, .cls-2 {
        fill: none;
        stroke-linecap: round;
        stroke-miterlimit: 10;
        stroke-width: 4px;
      }

      .cls-2 {
        stroke: #808285;
      }
    </style>
  </defs>
  <g id="Full">
    <g id="fULL">
      <path class="cls-2" d="M39.68,129.38c9.94-16.6,10.86-28.92,9.7-37.28-.94-6.79-4.44-15.03-1.77-26.44,1.2-5.15,3.72-9.43,5.18-12.02"/>
      <path class="cls-2" d="M50.08,133.07c6.83-11.61,9.24-21.87,10.21-28.26,1.53-10.05,1.96-26.67-1.36-34.38-.18-.41-.99-3.25-.68-5.02.94-5.45,4.33-7.06,9.19-8.26.51-.12,6.05-1.4,10.21,2.04,2.51,2.08,3.15,4.74,4.26,9.7.7,3.13.95,5.87,1.19,15.32.09,3.75.14,6.87.17,9.02"/>
      <path class="cls-2" d="M69.66,68.05c1.36,7.08,2.42,16.11,2.04,26.55-.3,8.17-1.41,15.35-2.72,21.28"/>
      <path class="cls-2" d="M65.74,125.24c-1.65,3.97-3.29,7.94-4.94,11.91"/>
      <path class="cls-2" d="M82.25,102.09c-.28,5.43-1.11,12.2-3.23,19.74-1.63,5.79-3.65,10.75-5.62,14.81"/>
      <path class="cls-2" d="M61.15,48.13c2.18-.68,10.68-3.06,18.89,1.36,8.88,4.78,11.39,14.28,12.43,18.21.69,2.61.87,4.54,1.02,12.6.27,14.17.41,21.25,0,25.36-.67,6.75-2.37,16.4-6.98,27.74"/>
      <path class="cls-2" d="M100.8,57.83c2.22,9.36,4.25,21.99,3.91,36.94-.3,13.59-2.46,25.1-4.77,33.87"/>
      <path class="cls-2" d="M6.34,90.51c-1.75-4.26-3.9-10.96-4.26-19.4-.4-9.48,1.63-17.06,3.23-21.62"/>
      <path class="cls-2" d="M9.57,39.45c2.53-5.37,9.13-17.5,23.15-26.72C48.16,2.57,63.46,1.94,69.32,2"/>
      <path class="cls-2" d="M80.21,2.68c5.65.89,23.86,4.49,38.81,20.6,16.86,18.17,17.79,39.56,17.87,44.77"/>
      <path class="cls-2" d="M48.21,17.32c1.53-.6,30.82-11.62,56.17,7.66,25.8,19.62,22.47,51.55,22.3,52.94"/>
      <path class="cls-2" d="M21.15,116.39c2.27-4.32,5.2-11.12,6.13-19.74,1.13-10.51-1.65-14.93-1.87-24.17-.05-1.92-.25-20.8,11.06-33.7,15.1-17.23,41.72-12.91,44.6-12.47"/>
      <path class="cls-2" d="M38,98.34c.4-3,.87-7.7.68-13.45-.33-10.3-2.37-12.62-2.04-18.89.65-12.45,9.63-21.09,10.55-21.96,10.15-9.5,22.64-9.11,24.51-9.02,15.39.73,24.15,11.86,25.36,13.45"/>
      <path class="cls-2" d="M91.02,30.26c21.02,12.26,23.56,31.49,24.43,36.09,1.2,6.34,1.33,12.27,1.36,19.91.05,13.82-1.4,25.15-2.72,32.85"/>
      <path class="cls-2" d="M127.36,88.64c-.28,4.94-.57,9.87-.85,14.81"/>
      <path class="cls-2" d="M13.83,106.68c1.15-2.35,2.56-5.91,3.06-10.38.67-5.97-.68-10.09-1.53-14.3,0,0-2.15-10.64-.17-22.81.65-3.98,2.73-15.8,12.09-26.55,3.96-4.55,8.02-7.53,10.89-9.36"/>
      <path class="cls-2" d="M30.34,123.37c1.22-1.86,2.57-4.25,3.74-7.15,1.27-3.15,1.98-6.02,2.38-8.34"/>
    </g>
  </g>
  <g id="Left">
    <g id="Left-2" data-name="Left">
      <path class="cls-1" d="M48.1,85.98c-1.2-5.52-2.41-12.02-.52-20.12.6-2.55,1.52-4.89,2.47-6.91"/>
      <path class="cls-1" d="M6.31,90.72c-1.75-4.26-3.9-10.96-4.26-19.4-.4-9.48,1.63-17.06,3.23-21.62"/>
      <path class="cls-1" d="M9.54,39.65c2.15-4.57,7.26-14.04,17.38-22.45"/>
      <path class="cls-1" d="M21.12,116.59c2.27-4.32,5.2-11.12,6.13-19.74,1.13-10.51-1.65-14.93-1.87-24.17-.05-1.92-.25-20.8,11.06-33.7,1.7-1.94,3.56-3.61,5.5-5.05"/>
      <path class="cls-1" d="M37.97,98.55c.4-3,.87-7.7.68-13.45-.33-10.3-2.37-12.62-2.04-18.89.55-10.52,7.04-18.32,9.6-21.01"/>
      <path class="cls-1" d="M34.96,25.68c1.16-.87,2.23-1.59,3.18-2.2"/>
      <path class="cls-1" d="M13.8,106.89c1.15-2.35,2.56-5.91,3.06-10.38.67-5.97-.68-10.09-1.53-14.3,0,0-2.15-10.64-.17-22.81.65-3.98,2.73-15.8,12.09-26.55,2.65-3.05,5.36-5.4,7.72-7.17"/>
      <path class="cls-1" d="M35.61,111.8c.37-1.35.63-2.6.83-3.72"/>
    </g>
  </g>
</svg>