<?xml version="1.0" encoding="UTF-8"?>
<svg id="Layer_1" xmlns="http://www.w3.org/2000/svg" viewBox="0 0 243.36 153.36">
  <defs>
    <style>
      .cls-1 {
        fill: #231f20;
      }
    </style>
  </defs>
  <path class="cls-1" d="M233.31,2c4.44,0,8.05,3.61,8.05,8.05v133.26c0,4.44-3.61,8.05-8.05,8.05H10.05c-4.44,0-8.05-3.61-8.05-8.05V10.05C2,5.61,5.61,2,10.05,2h223.26M233.31,0H10.05C4.5,0,0,4.5,0,10.05v133.26c0,5.55,4.5,10.05,10.05,10.05h223.26c5.55,0,10.05-4.5,10.05-10.05V10.05c0-5.55-4.5-10.05-10.05-10.05h0Z"/>
</svg>